# xmcd
#
# Track frame offsets:
# 150
# 17430
# 29720
# 44555
# 60905
# 80917
# 94690
# 111155
# 126657
# 137967
# 150922
# 169807
#
# Disc length: 2525 seconds
#
#
# Revision: 5
# Processed by: cddbd v1.5.2PL0 Copyright (c) Steve Scherf et al.
# Submitted via: FreeRIP 2.90 
#
DISCID=a109db0c
DTITLE=Os Monarcas - 30 Anos De Estrada Disco 1
DYEAR=1900
DGENRE=Gaucho
TTITLE0=Sonhando na vaneira
TTITLE1=Cheiro de galpao
TTITLE2=Gineteando o temporal
TTITLE3=Vaneira grossa
TTITLE4=Erechim historia e canto
TTITLE5=A voz do gaudencio
TTITLE6=Bugio do fole solto
TTITLE7=Pago dileto
TTITLE8=Rancheira puladinha
TTITLE9=Sistema antigo
TTITLE10=Prece telurica
TTITLE11=Infancia perdida
EXTD=
EXTT0=
EXTT1=
EXTT2=
EXTT3=
EXTT4=
EXTT5=
EXTT6=
EXTT7=
EXTT8=
EXTT9=
EXTT10=
EXTT11=
PLAYORDER=
